<svg xmlns="http://www.w3.org/2000/svg" version="1.1" viewBox="0.00 0.00 500.00 500.00" width="500.00" height="500.00">
<style>
    path { fill: #000; }
    @media (prefers-color-scheme: dark) {
      path { fill: #fff; }
    }
  </style>
<path d="&#10;  M 175.19 387.21&#10;  L 18.01 467.96&#10;  A 0.64 0.63 76.6 0 1 17.09 467.39&#10;  L 17.09 387.77&#10;  A 2.24 2.23 -13.9 0 1 18.29 385.79&#10;  Q 41.69 373.50 97.12 345.38&#10;  Q 105.48 341.14 112.93 336.49&#10;  A 0.98 0.98 0.0 0 0 113.20 335.07&#10;  C 99.25 316.32 86.81 294.38 81.57 271.93&#10;  C 73.57 237.59 76.36 202.04 91.25 169.99&#10;  Q 115.53 117.74 168.03 93.01&#10;  Q 205.40 75.40 246.58 78.69&#10;  C 299.89 82.94 345.99 112.49 372.04 158.71&#10;  C 388.38 187.71 394.84 222.43 390.51 255.84&#10;  Q 384.55 301.73 352.76 337.93&#10;  A 0.49 0.49 0.0 0 0 353.04 338.73&#10;  C 362.88 340.50 373.22 339.66 382.46 335.77&#10;  C 403.59 326.88 415.23 307.50 415.86 284.95&#10;  A 0.77 0.77 0.0 0 1 416.63 284.20&#10;  L 490.98 284.20&#10;  A 0.80 0.80 0.0 0 1 491.78 284.97&#10;  C 493.60 335.45 465.56 381.63 420.24 403.56&#10;  Q 368.85 428.42 315.57 407.07&#10;  C 274.82 390.74 245.55 354.35 236.59 311.63&#10;  C 233.85 298.56 232.31 285.15 243.02 275.29&#10;  C 246.67 271.94 251.03 269.25 256.25 267.51&#10;  C 268.93 263.26 281.46 262.38 294.75 262.88&#10;  A 0.64 0.64 0.0 0 0 295.41 262.24&#10;  L 295.41 171.41&#10;  A 0.68 0.68 0.0 0 0 294.88 170.75&#10;  C 284.47 168.38 274.61 168.15 263.98 168.34&#10;  Q 257.21 168.46 250.06 169.69&#10;  Q 219.44 174.96 193.99 193.48&#10;  C 155.17 221.74 133.63 272.64 142.73 320.27&#10;  Q 149.89 357.79 175.40 386.06&#10;  A 0.74 0.74 0.0 0 1 175.19 387.21&#10;  Z"/>
</svg>